<?xml version="1.0" encoding="UTF-8"?> <svg xmlns="http://www.w3.org/2000/svg" width="81.371" height="81.713" viewBox="0 0 81.371 81.713"><g id="Raggruppa_212" data-name="Raggruppa 212" transform="translate(0.726 -4.923)"><g id="Raggruppa_189" data-name="Raggruppa 189" transform="translate(0 0)"><path id="Tracciato_63" data-name="Tracciato 63" d="M78.87,30.385H13.619a13.118,13.118,0,0,1,0-26.237H78.87A35.449,35.449,0,0,0,78.87,30.385Z" transform="translate(0.275 2.275)" fill="none" stroke="#e33d36" stroke-linecap="round" stroke-linejoin="round" stroke-width="3"></path><path id="Tracciato_64" data-name="Tracciato 64" d="M78.868,34.215A13.122,13.122,0,0,1,65.881,47.333V38.6H48.373v8.728H.5A35.657,35.657,0,0,0,2.747,38.6a35.28,35.28,0,0,0,.271-4.39A35.394,35.394,0,0,0,.5,21.089H65.749A13.106,13.106,0,0,1,78.868,34.215Z" transform="translate(0.274 11.566)" fill="none" stroke="#e33d36" stroke-linecap="round" stroke-linejoin="round" stroke-width="3"></path><line id="Linea_51" data-name="Linea 51" x2="54.859" transform="translate(13.383 14.259)" fill="none" stroke="#e33d36" stroke-linecap="round" stroke-linejoin="round" stroke-width="3"></line><line id="Linea_52" data-name="Linea 52" x2="54.859" transform="translate(21.22 21.755)" fill="none" stroke="#e33d36" stroke-linecap="round" stroke-linejoin="round" stroke-width="3"></line><path id="Tracciato_66" data-name="Tracciato 66" d="M1.951,32.4H67.174" transform="translate(1.07 17.77)" fill="none" stroke="#e33d36" stroke-linecap="round" stroke-linejoin="round" stroke-width="3"></path><line id="Linea_55" data-name="Linea 55" x2="40.798" transform="translate(16.68 40.694)" fill="none" stroke="#e33d36" stroke-linecap="round" stroke-linejoin="round" stroke-width="3"></line><line id="Linea_56" data-name="Linea 56" x2="10.528" transform="translate(67.596 40.694)" fill="none" stroke="#e33d36" stroke-linecap="round" stroke-linejoin="round" stroke-width="3"></line><path id="Tracciato_67" data-name="Tracciato 67" d="M48.373,38.038H.5A35.39,35.39,0,0,1,3.018,51.156a35.3,35.3,0,0,1-.269,4.39A35.661,35.661,0,0,1,.5,64.275H65.751a13.119,13.119,0,0,0,.13-26.237" transform="translate(0.274 20.861)" fill="none" stroke="#e33d36" stroke-linecap="round" stroke-linejoin="round" stroke-width="3"></path><line id="Linea_57" data-name="Linea 57" x1="65.223" transform="translate(3.019 76.407)" fill="none" stroke="#e33d36" stroke-linecap="round" stroke-linejoin="round" stroke-width="3"></line><line id="Linea_58" data-name="Linea 58" x2="18.793" transform="translate(3.669 66.93)" fill="none" stroke="#e33d36" stroke-linecap="round" stroke-linejoin="round" stroke-width="3"></line><line id="Linea_59" data-name="Linea 59" x2="16.835" transform="translate(31.815 66.93)" fill="none" stroke="#e33d36" stroke-linecap="round" stroke-linejoin="round" stroke-width="3"></line><path id="Tracciato_68" data-name="Tracciato 68" d="M48.925,32.4V58.638l-8.753-9.582-8.755,9.582V32.4" transform="translate(17.23 17.77)" fill="none" stroke="#e33d36" stroke-linecap="round" stroke-linejoin="round" stroke-width="3"></path></g></g></svg> 