<?xml version="1.0" encoding="UTF-8"?> <svg xmlns="http://www.w3.org/2000/svg" width="54.428" height="87.896" viewBox="0 0 54.428 87.896"><g id="Raggruppa_218" data-name="Raggruppa 218" transform="translate(-338.363 0.172)"><g id="Raggruppa_191" data-name="Raggruppa 191" transform="translate(0 0)"><path id="Tracciato_83" data-name="Tracciato 83" d="M245.631,65.281H233.708A11.86,11.86,0,0,1,221.847,53.42V28h35.645V53.42A11.861,11.861,0,0,1,245.631,65.281Z" transform="translate(121.667 15.355)" fill="none" stroke="#e33d36" stroke-linecap="round" stroke-linejoin="round" stroke-width="3"></path><path id="Tracciato_84" data-name="Tracciato 84" d="M244.867,28a12.134,12.134,0,0,1,0,24.269" transform="translate(134.292 15.355)" fill="none" stroke="#e33d36" stroke-linecap="round" stroke-linejoin="round" stroke-width="3"></path><path id="Tracciato_85" data-name="Tracciato 85" d="M250.365,56.841c9.8-1.717,12.07-4.765,12.07-4.765H219.489s2.267,3.047,12.072,4.765A54.547,54.547,0,0,0,250.365,56.841Z" transform="translate(120.374 28.56)" fill="none" stroke="#e33d36" stroke-linecap="round" stroke-linejoin="round" stroke-width="3"></path><path id="Tracciato_86" data-name="Tracciato 86" d="M235.666,38.5s-2.71-4.119-.867-7.369,5.528-7.479,2.927-12.03-7.462-11.7-3.568-17.881" transform="translate(127.62 0.672)" fill="none" stroke="#e33d36" stroke-linecap="round" stroke-linejoin="round" stroke-width="3"></path><path id="Tracciato_87" data-name="Tracciato 87" d="M230.27,32.172s-2.71-4.119-.867-7.369,5.528-7.479,2.927-12.03" transform="translate(125.459 7.005)" fill="none" stroke="#e33d36" stroke-linecap="round" stroke-linejoin="round" stroke-width="3"></path></g></g></svg> 