<?xml version="1.0" encoding="UTF-8"?> <svg xmlns="http://www.w3.org/2000/svg" width="88.781" height="76.737" viewBox="0 0 88.781 76.737"><g id="Raggruppa_191" data-name="Raggruppa 191" transform="translate(-231.616 -9.934)"><path id="Tracciato_65" data-name="Tracciato 65" d="M236.331,65.177H164.909a14.359,14.359,0,0,1,0-28.719h71.423A38.8,38.8,0,0,0,236.331,65.177Z" transform="translate(82.566 19.994)" fill="none" stroke="#e33d36" stroke-linecap="round" stroke-linejoin="round" stroke-width="3"></path><line id="Linea_53" data-name="Linea 53" x2="60.047" transform="translate(246.916 65.031)" fill="none" stroke="#e33d36" stroke-linecap="round" stroke-linejoin="round" stroke-width="3"></line><line id="Linea_54" data-name="Linea 54" x2="60.047" transform="translate(255.494 73.236)" fill="none" stroke="#e33d36" stroke-linecap="round" stroke-linejoin="round" stroke-width="3"></line><path id="Tracciato_80" data-name="Tracciato 80" d="M212.772,25.779A13.317,13.317,0,0,0,192.3,14.533a5.069,5.069,0,0,1-5.5,0,13.317,13.317,0,0,0-20.47,11.246,13.361,13.361,0,0,0,.115,1.661l-.115-.06a33.911,33.911,0,0,0,6.923,16.734,11.9,11.9,0,0,0,1.685,1.99l.008.008v0a11.76,11.76,0,0,0,14.608,1.3,11.758,11.758,0,0,0,14.606-1.3v0l.008-.008a11.9,11.9,0,0,0,1.685-1.99,33.911,33.911,0,0,0,6.923-16.734l-.115.06A13.361,13.361,0,0,0,212.772,25.779Z" transform="translate(91.219 6.827)" fill="none" stroke="#e33d36" stroke-linecap="round" stroke-linejoin="round" stroke-width="3"></path><path id="Tracciato_81" data-name="Tracciato 81" d="M190.136,7.641a14.586,14.586,0,0,0-8.811,10.34" transform="translate(99.444 4.19)" fill="none" stroke="#e33d36" stroke-linecap="round" stroke-linejoin="round" stroke-width="3"></path><path id="Tracciato_82" data-name="Tracciato 82" d="M180.316,17.419c-3.568-1.169-9.746,2.838-8.911,9.351" transform="translate(93.962 9.442)" fill="none" stroke="#e33d36" stroke-linecap="round" stroke-linejoin="round" stroke-width="3"></path></g></svg> 