<?xml version="1.0" encoding="UTF-8"?> <svg xmlns="http://www.w3.org/2000/svg" width="81.166" height="88.444" viewBox="0 0 81.166 88.444"><g id="Raggruppa_213" data-name="Raggruppa 213" transform="translate(-117.114 0.726)"><g id="Raggruppa_191" data-name="Raggruppa 191" transform="translate(0 0)"><path id="Tracciato_69" data-name="Tracciato 69" d="M110.719,19.04a3.234,3.234,0,0,1,0,3.03,7.275,7.275,0,0,1-6.476,3.612,7.38,7.38,0,0,1-6.17-3.1,3.673,3.673,0,0,1,0-4.044,7.392,7.392,0,0,1,6.169-3.1A7.284,7.284,0,0,1,110.719,19.04Z" transform="translate(53.455 8.462)" fill="none" stroke="#e33d36" stroke-linecap="round" stroke-linejoin="round" stroke-width="3"></path><path id="Tracciato_70" data-name="Tracciato 70" d="M110.746,19.04a3.234,3.234,0,0,1,0,3.03,7.61,7.61,0,0,1-12.951,0,3.234,3.234,0,0,1,0-3.03,7.611,7.611,0,0,1,12.948,0Z" transform="translate(53.428 8.462)" fill="none" stroke="#e33d36" stroke-linecap="round" stroke-linejoin="round" stroke-width="3"></path><path id="Tracciato_71" data-name="Tracciato 71" d="M99.808,7.73a1.639,1.639,0,0,0-.269.186.217.217,0,0,0-.1.062c-.124.084-.248.177-.372.26a2.452,2.452,0,0,0-.269.2l-.135.1c-.155.1-.3.218-.455.342l-.186.155c-.146.115-.291.228-.424.353a1.437,1.437,0,0,0-.2.164,1.067,1.067,0,0,0-.1.094c-.062.051-.125.1-.187.155-.206.177-.413.373-.61.559a2.163,2.163,0,0,0-.228.238c-.02.02-.042.04-.062.062a10.349,10.349,0,0,0-.745.787,11.711,11.711,0,0,0-.89,1.034c-.053.073-.1.135-.166.207-.146.175-.29.351-.415.537-.2.249-.372.508-.548.766-.207.3-.4.6-.59.91s-.362.621-.539.943c-.124.237-.248.475-.362.714a2.067,2.067,0,0,0-.113.259c-.177.331-.331.672-.477,1.025a.171.171,0,0,0-.031.093,10.135,10.135,0,0,0-.382.963c-.113.31-.228.621-.321.941a.618.618,0,0,0-.022.073c-.071.206-.133.424-.186.641-.082.28-.155.559-.217.849-.084.362-.166.736-.228,1.107a.063.063,0,0,0-.011.042A9.353,9.353,0,1,1,99.808,7.73Z" transform="translate(45.593 2.298)" fill="none" stroke="#e33d36" stroke-linecap="round" stroke-linejoin="round" stroke-width="3"></path><path id="Tracciato_72" data-name="Tracciato 72" d="M99.808,7.73a1.639,1.639,0,0,0-.269.186.217.217,0,0,0-.1.062c-.124.084-.248.177-.372.26a2.452,2.452,0,0,0-.269.2l-.135.1c-.155.1-.3.218-.455.342l-.186.155c-.146.115-.291.228-.424.353a1.437,1.437,0,0,0-.2.164,1.067,1.067,0,0,0-.1.094c-.062.051-.125.1-.187.155-.206.177-.413.373-.61.559a2.163,2.163,0,0,0-.228.238c-.02.02-.042.04-.062.062a10.349,10.349,0,0,0-.745.787,11.711,11.711,0,0,0-.89,1.034c-.053.073-.1.135-.166.207-.146.175-.29.351-.415.537-.2.249-.372.508-.548.766-.207.3-.4.6-.59.91s-.362.621-.539.943c-.124.237-.248.475-.362.714a2.067,2.067,0,0,0-.113.259c-.177.331-.331.672-.477,1.025a.171.171,0,0,0-.031.093,10.135,10.135,0,0,0-.382.963c-.113.31-.217.621-.321.941a.618.618,0,0,0-.022.073c-.071.206-.133.424-.186.641-.082.28-.155.559-.217.849-.084.362-.166.736-.228,1.107a.063.063,0,0,0-.011.042A9.353,9.353,0,1,1,99.808,7.73Z" transform="translate(45.593 2.298)" fill="none" stroke="#e33d36" stroke-linecap="round" stroke-linejoin="round" stroke-width="3"></path><path id="Tracciato_73" data-name="Tracciato 73" d="M126.855,14.525c-.177-.321-.351-.632-.539-.941s-.382-.612-.59-.912a21.57,21.57,0,0,0-2.018-2.546A22.654,22.654,0,0,1,127.33,15.5a2.169,2.169,0,0,0-.113-.259C127.1,15,126.979,14.763,126.855,14.525Zm-5.042-6.254c-.045-.039-.09-.074-.135-.113C121.723,8.2,121.768,8.232,121.813,8.271Zm.249.209c-.082-.073-.167-.138-.249-.209.395.342.779.7,1.149,1.068a3.72,3.72,0,0,0-.29-.3C122.476,8.853,122.27,8.656,122.063,8.48ZM120.51,7.218c.4.3.79.616,1.169.94-.237-.2-.471-.41-.714-.6C120.81,7.435,120.664,7.32,120.51,7.218Zm1.294,23.03a3.112,3.112,0,0,0,0-.974A3.941,3.941,0,0,1,121.8,30.248ZM119.63,6.6c.248.164.508.341.745.517a2.312,2.312,0,0,0-.269-.2A4.562,4.562,0,0,0,119.63,6.6ZM101.572,18.484c-.271.1-.533.223-.794.342C101.04,18.707,101.3,18.59,101.572,18.484Zm1.051-.369c-.356.11-.706.234-1.051.369C101.918,18.351,102.266,18.224,102.624,18.116Zm-2.888,1.222c-.186.1-.362.207-.537.311s-.342.206-.508.331a14.975,14.975,0,0,1,1.826-1.034c-.09.043-.184.077-.273.122C100.067,19.161,99.9,19.245,99.736,19.337Zm1.042-.511c-.087.04-.175.077-.262.119C100.6,18.9,100.691,18.867,100.778,18.826ZM99.726,40.193c.175.094.341.177.506.269.208.1.424.207.632.29a15.555,15.555,0,0,1-1.646-.869A5.172,5.172,0,0,0,99.726,40.193Zm-.508-.31c-.351-.218-.694-.446-1.034-.694A8.264,8.264,0,0,0,99.219,39.884Zm-.528-19.9A11.662,11.662,0,0,0,97.221,21.1,15.424,15.424,0,0,1,98.691,19.98Zm-.506,19.21c-.331-.238-.652-.5-.963-.766A7.279,7.279,0,0,0,98.184,39.19Zm-.963-.766a11.377,11.377,0,0,1-.9-.838A6.784,6.784,0,0,0,97.221,38.423ZM92.44,30.889a.037.037,0,0,0,.011.031c.04.177.093.351.144.528.042.135.084.269.135.393.062.177.124.351.2.528a14.026,14.026,0,0,0,1.438,2.826c.1.166.218.321.331.486.238.342.5.672.776,1,.135.156.269.311.4.455a4.49,4.49,0,0,0,.446.446,15.135,15.135,0,0,1-3.935-6.956C92.406,30.717,92.418,30.807,92.44,30.889Zm-.053-.259h0v0Zm-.051-.259c.011.087.034.17.051.257-.02-.113-.051-.237-.062-.361C92.325,30.3,92.336,30.341,92.336,30.372Zm.051-1.48v0ZM95.2,23.178c-.135.155-.249.321-.373.486a13.315,13.315,0,0,0-1.273,2.081c-.093.175-.187.362-.269.548s-.166.373-.238.559a1.9,1.9,0,0,0-.124.3c-.073.177-.135.351-.2.528-.051.135-.093.269-.135.4-.051.175-.1.341-.144.517a.035.035,0,0,0-.011.031c-.022.082-.034.172-.053.259a15.182,15.182,0,0,1,3.935-6.956A14.052,14.052,0,0,0,95.2,23.178ZM92.336,29.15c0,.031-.011.073-.011.1.011-.124.042-.248.062-.361C92.37,28.978,92.347,29.062,92.336,29.15Z" transform="translate(50.634 3.618)" fill="none" stroke="#e33d36" stroke-linecap="round" stroke-linejoin="round" stroke-width="3"></path><path id="Tracciato_74" data-name="Tracciato 74" d="M92.9,7.329c-.146.115-.29.238-.424.351.155-.124.31-.259.475-.382C92.927,7.309,92.916,7.318,92.9,7.329Z" transform="translate(50.714 4.002)" fill="none" stroke="#e33d36" stroke-linecap="round" stroke-linejoin="round" stroke-width="3"></path><path id="Tracciato_75" data-name="Tracciato 75" d="M126.459,13.547a9.353,9.353,0,0,1-6.832,9.006.067.067,0,0,0-.009-.042c-.063-.373-.146-.746-.229-1.107-.062-.291-.133-.57-.217-.85a6.343,6.343,0,0,0-.186-.641.716.716,0,0,0-.022-.073c-.093-.321-.206-.632-.321-.941a18.441,18.441,0,0,0-.89-2.081,1.947,1.947,0,0,0-.113-.259c-.115-.238-.238-.475-.362-.714-.177-.321-.351-.632-.539-.941s-.382-.612-.59-.912a21.7,21.7,0,0,0-2.018-2.546,10.379,10.379,0,0,0-.746-.787,3.72,3.72,0,0,0-.29-.3c-.2-.186-.4-.382-.61-.559-.362-.321-.725-.632-1.1-.921-.155-.124-.3-.237-.455-.341a1.013,1.013,0,0,0-.135-.1,2.431,2.431,0,0,0-.268-.2,4.751,4.751,0,0,0-.477-.321,1.584,1.584,0,0,0-.269-.187,9.35,9.35,0,0,1,16.675,5.817Z" transform="translate(60.209 2.298)" fill="none" stroke="#e33d36" stroke-linecap="round" stroke-linejoin="round" stroke-width="3"></path><path id="Tracciato_76" data-name="Tracciato 76" d="M126.459,13.547a9.353,9.353,0,0,1-6.832,9.006.067.067,0,0,0-.009-.042c-.063-.373-.146-.746-.229-1.107-.062-.291-.133-.57-.217-.85a6.343,6.343,0,0,0-.186-.641.716.716,0,0,0-.022-.073c-.1-.321-.206-.632-.321-.941a18.441,18.441,0,0,0-.89-2.081,1.947,1.947,0,0,0-.113-.259c-.115-.238-.238-.475-.362-.714-.177-.321-.351-.632-.539-.941s-.382-.612-.59-.912a21.7,21.7,0,0,0-2.018-2.546,10.379,10.379,0,0,0-.746-.787,3.72,3.72,0,0,0-.29-.3c-.2-.186-.4-.382-.61-.559-.362-.321-.725-.632-1.1-.921-.155-.124-.3-.237-.455-.341a1.013,1.013,0,0,0-.135-.1,2.431,2.431,0,0,0-.268-.2,4.751,4.751,0,0,0-.477-.321,1.584,1.584,0,0,0-.269-.187,9.35,9.35,0,0,1,16.675,5.817Z" transform="translate(60.209 2.298)" fill="none" stroke="#e33d36" stroke-linecap="round" stroke-linejoin="round" stroke-width="3"></path><path id="Tracciato_77" data-name="Tracciato 77" d="M147.007,37.576H136.324a22.378,22.378,0,0,0,1.863-8.984v-.146A14.045,14.045,0,1,0,123.935,7.663c-.177-.073-.351-.135-.528-.2-.342-.124-.694-.248-1.045-.351-.311-.1-.621-.187-.932-.269l-.217-.062c-.269-.062-.539-.124-.818-.186a20.069,20.069,0,0,0-2.547-.393,21,21,0,0,0-2.152-.1h-.02a21.055,21.055,0,0,0-2.154.1,22.246,22.246,0,0,0-2.546.393c-.28.062-.548.124-.818.186l-.218.062c-.31.082-.621.166-.931.269-.351.1-.7.228-1.045.351-.177.062-.353.124-.528.2A14.042,14.042,0,1,0,93.184,28.446v.146a22.229,22.229,0,0,0,1.874,8.984H84.365a7.763,7.763,0,0,0,0,15.526h23.816a7.508,7.508,0,0,1,7.5,7.5,7.51,7.51,0,0,1,7.505-7.5h23.816a7.763,7.763,0,0,0,0-15.526ZM99.85,12.621l-.062.062c-.259.259-.508.517-.745.787-.3.331-.6.683-.89,1.034-.053.073-.1.135-.166.207a23.121,23.121,0,0,0-2.567,4.13c-.175.373-.341.746-.506,1.118a9.9,9.9,0,0,0-.384.963c-.113.31-.217.621-.321.941a.431.431,0,0,0-.02.073c-.073.207-.135.424-.187.641-.082.28-.155.559-.217.849-.084.362-.166.736-.228,1.109-.011.009-.011.031-.011.04a9.353,9.353,0,1,1,9.843-14.822,1.649,1.649,0,0,0-.269.187c-.124.082-.248.166-.372.259s-.249.166-.373.259c-.051.042-.093.073-.135.1-.2.144-.393.3-.59.465-.166.125-.321.26-.475.384l-.2.166a.9.9,0,0,0-.1.093C100.523,11.979,100.181,12.29,99.85,12.621Zm30.575,20.97v.02c0,.031-.011.073-.011.1a4.247,4.247,0,0,1-.1.517.037.037,0,0,1-.011.031c-.042.177-.093.351-.146.528a3.784,3.784,0,0,1-.135.393c-.062.177-.124.351-.2.528a11.739,11.739,0,0,1-.869,1.863,9.043,9.043,0,0,1-.57.963c-.1.166-.217.321-.331.486-.237.342-.5.674-.776,1-.135.156-.269.311-.4.457a4.627,4.627,0,0,1-.444.444,6.8,6.8,0,0,1-.9.838,7.048,7.048,0,0,1-.962.766,8.28,8.28,0,0,1-1.036.694,5.337,5.337,0,0,1-.506.31c-.177.094-.342.177-.508.269-.207.1-.424.207-.632.29a12.14,12.14,0,0,1-1.158.466c-.228.084-.455.166-.694.228-.259.073-.517.146-.777.207s-.517.113-.776.166a10.614,10.614,0,0,1-1.16.166c-.237.031-.475.051-.714.062-.29.02-.59.031-.89.031h-.062c-.3,0-.6-.011-.89-.031-.237-.011-.475-.031-.714-.062-.393-.042-.776-.093-1.158-.166-.26-.053-.519-.1-.777-.166s-.517-.135-.776-.207c-.228-.073-.466-.144-.694-.228a12.333,12.333,0,0,1-1.16-.466c-.206-.082-.424-.186-.63-.29-.166-.093-.331-.175-.508-.269a4.975,4.975,0,0,1-.506-.31,8.168,8.168,0,0,1-1.036-.694,7.154,7.154,0,0,1-.963-.766,6.88,6.88,0,0,1-.9-.838,4.648,4.648,0,0,1-.446-.444c-.133-.146-.268-.3-.4-.457-.28-.33-.539-.661-.777-1-.113-.166-.228-.321-.331-.486a9.288,9.288,0,0,1-.568-.963,11.743,11.743,0,0,1-.87-1.863c-.071-.177-.135-.351-.2-.528-.051-.124-.093-.259-.135-.393-.051-.177-.1-.351-.144-.528a.037.037,0,0,1-.011-.031,4.243,4.243,0,0,1-.1-.517c0-.031-.009-.073-.009-.1a.013.013,0,0,1,0-.02,3.024,3.024,0,0,1,0-.974.013.013,0,0,1,0-.02c0-.031.009-.073.009-.1a4.243,4.243,0,0,1,.1-.517.037.037,0,0,1,.011-.031c.042-.177.093-.342.144-.517.042-.135.084-.269.135-.4.062-.177.125-.351.2-.528a1.77,1.77,0,0,1,.125-.3c.071-.186.155-.372.237-.559s.177-.372.269-.548a13.312,13.312,0,0,1,1.273-2.081c.125-.166.238-.331.373-.486a14.05,14.05,0,0,1,1.118-1.242,8.535,8.535,0,0,1,.9-.838,11.58,11.58,0,0,1,1.471-1.118c.166-.125.341-.228.506-.331s.351-.207.539-.311c.166-.093.331-.175.506-.269a14.582,14.582,0,0,1,2.381-.952c.455-.133.921-.259,1.4-.351a10.177,10.177,0,0,1,1.025-.175c.155-.022.31-.042.466-.053.175-.02.351-.031.528-.051.341-.022.683-.031,1.034-.031s.683.009,1.014.031c.177.02.352.031.528.051.155.011.311.031.466.053a10.176,10.176,0,0,1,1.025.175c.1.022.206.042.31.062.166.042.331.073.5.124.2.053.393.1.59.166.177.053.352.115.528.177a14.1,14.1,0,0,1,1.852.776c.177.094.342.177.508.269l.155.093c.135.073.259.146.384.218.166.1.341.206.506.331a11.565,11.565,0,0,1,1.469,1.118,8.553,8.553,0,0,1,.9.838,8.841,8.841,0,0,1,.683.736c.155.166.3.331.435.506.135.155.248.321.372.486a13.206,13.206,0,0,1,1.274,2.081c.093.177.186.362.268.548s.166.373.238.559a1.76,1.76,0,0,1,.124.3c.073.177.135.351.2.528.053.135.094.269.135.4.053.175.1.341.146.517a.037.037,0,0,1,.011.031,4.247,4.247,0,0,1,.1.517c0,.031.011.073.011.1v.02A3.114,3.114,0,0,1,130.425,33.591Zm1.9-20.122c-.238-.269-.486-.528-.745-.787a22.864,22.864,0,0,0-2.453-2.121,1.262,1.262,0,0,0-.135-.1c-.238-.177-.5-.351-.746-.517a1.573,1.573,0,0,0-.268-.187,9.351,9.351,0,1,1,9.842,14.822.065.065,0,0,0-.009-.04c-.062-.373-.146-.746-.228-1.109-.062-.29-.135-.568-.218-.849a6.343,6.343,0,0,0-.186-.641c-.011-.031-.011-.053-.02-.073-.1-.321-.207-.632-.322-.941a18.723,18.723,0,0,0-.889-2.081A22.661,22.661,0,0,0,132.329,13.47Z" transform="translate(42.011 0.274)" fill="none" stroke="#e33d36" stroke-linecap="round" stroke-linejoin="round" stroke-width="3"></path><path id="Tracciato_78" data-name="Tracciato 78" d="M82.915,51.986A12.668,12.668,0,1,1,95.584,64.656,12.669,12.669,0,0,1,82.915,51.986Z" transform="translate(45.473 21.562)" fill="none" stroke="#e33d36" stroke-linecap="round" stroke-linejoin="round" stroke-width="3"></path><path id="Tracciato_79" data-name="Tracciato 79" d="M104.411,51.986A12.668,12.668,0,1,1,117.08,64.656,12.669,12.669,0,0,1,104.411,51.986Z" transform="translate(57.262 21.562)" fill="none" stroke="#e33d36" stroke-linecap="round" stroke-linejoin="round" stroke-width="3"></path></g></g></svg> 