<?xml version="1.0" encoding="UTF-8"?> <svg xmlns="http://www.w3.org/2000/svg" width="65.968" height="78.803" viewBox="0 0 65.968 78.803"><g id="Raggruppa_215" data-name="Raggruppa 215" transform="translate(-417.623 -3.333)"><g id="Raggruppa_191" data-name="Raggruppa 191" transform="translate(0 0)"><path id="Tracciato_88" data-name="Tracciato 88" d="M283.032,16.925c0-7.624,5.529-13.8,12.352-13.8s12.35,6.18,12.35,13.8-5.529,13.8-12.35,13.8S283.032,24.55,283.032,16.925Z" transform="translate(155.223 1.711)" fill="none" stroke="#e33d36" stroke-linecap="round" stroke-linejoin="round" stroke-width="3"></path><path id="Tracciato_89" data-name="Tracciato 89" d="M302.16,32.982V66.4S290.536,54.78,270.676,61.56V27.654S285.691,21.357,302.16,32.982Z" transform="translate(148.447 14.232)" fill="none" stroke="#e33d36" stroke-linecap="round" stroke-linejoin="round" stroke-width="3"></path><path id="Tracciato_90" data-name="Tracciato 90" d="M291.009,32.982V66.4s11.626-11.624,31.484-4.843V27.654S307.478,21.357,291.009,32.982Z" transform="translate(159.598 14.232)" fill="none" stroke="#e33d36" stroke-linecap="round" stroke-linejoin="round" stroke-width="3"></path><path id="Tracciato_91" data-name="Tracciato 91" d="M298.473,20.952A34.971,34.971,0,0,0,277.4,28.695" transform="translate(152.134 11.488)" fill="none" stroke="#e33d36" stroke-linecap="round" stroke-linejoin="round" stroke-width="3"></path><path id="Tracciato_92" data-name="Tracciato 92" d="M291.009,20.952a34.97,34.97,0,0,1,21.074,7.742" transform="translate(159.598 11.488)" fill="none" stroke="#e33d36" stroke-linecap="round" stroke-linejoin="round" stroke-width="3"></path></g></g></svg> 