<svg id="Raggruppa_53" data-name="Raggruppa 53" xmlns="http://www.w3.org/2000/svg" xmlns:xlink="http://www.w3.org/1999/xlink" width="25.755" height="22.203" viewBox="0 0 25.755 22.203">
  <defs>
    <clipPath id="clip-path">
      <rect id="Rettangolo_38" data-name="Rettangolo 38" width="25.755" height="22.203" fill="#383838"/>
    </clipPath>
  </defs>
  <g id="Raggruppa_52" data-name="Raggruppa 52" clip-path="url(#clip-path)">
    <path id="Tracciato_21" data-name="Tracciato 21" d="M26.972,0Z" transform="translate(-11.296 0)" fill="#383838"/>
    <path id="Tracciato_22" data-name="Tracciato 22" d="M17.243.123A10.2,10.2,0,0,0,15.676,0V1.744a8.333,8.333,0,0,1,8.234,9.61,8.275,8.275,0,0,1-8.21,7.038,8.413,8.413,0,0,1-1.3-.1A8.323,8.323,0,0,1,15.675,1.744V0h0A10.054,10.054,0,0,0,7.216,15.483L0,20.8l1.034,1.4,7.242-5.334a10.017,10.017,0,0,0,5.856,3.143A10.066,10.066,0,1,0,17.243.123" transform="translate(0 0)" fill="#383838"/>
  </g>
</svg>
