<svg id="Raggruppa_158" data-name="Raggruppa 158" xmlns="http://www.w3.org/2000/svg" width="29.421" height="33.473" viewBox="0 0 29.421 33.473">
  <path id="Tracciato_12" data-name="Tracciato 12" d="M32.022,130.686a.985.985,0,0,0-.287-.692L28.1,126.359v-7.57a.98.98,0,0,0-.98-.98H7.506a.981.981,0,0,0-.981.98v7.57l-3.635,3.635-.01.01a.987.987,0,0,0-.278.682V148.34a2.945,2.945,0,0,0,2.942,2.941H29.081a2.945,2.945,0,0,0,2.942-2.941V130.686m-2.367,0L28.1,132.242v-3.11Zm-3.516-10.918v7h0V134.2l-5.31,5.31H13.8l-5.31-5.31v-7.439h0v-7ZM6.525,132.242l-1.555-1.555,1.555-1.555ZM4.564,147.933V133.055L12,140.494Zm1.387,1.387,7.845-7.845h7.033l7.845,7.845Zm24.11-1.387-7.44-7.44,7.44-7.439Z" transform="translate(-2.602 -117.808)" fill="#383838"/>
</svg>
