<?xml version="1.0" encoding="utf-8"?>
<!-- Generator: Adobe Illustrator 27.4.0, SVG Export Plug-In . SVG Version: 6.00 Build 0)  -->
<svg version="1.1" id="newsletter" xmlns="http://www.w3.org/2000/svg" xmlns:xlink="http://www.w3.org/1999/xlink" x="0px" y="0px"
	 viewBox="0 0 101.5 115.4" style="enable-background:new 0 0 101.5 115.4;" xml:space="preserve">
<style type="text/css">
	.st0{opacity:0.3;fill:#383838;}
</style>
<path id="Tracciato_12" class="st0" d="M101.5,44.4c0-0.9-0.4-1.8-1-2.4L87.9,29.5V3.4c0-1.9-1.5-3.4-3.4-3.4h0H16.9
	c-1.9,0-3.4,1.5-3.4,3.4c0,0,0,0,0,0v26.1L1,42l0,0c-0.6,0.6-1,1.5-1,2.4v60.9c0,5.6,4.5,10.1,10.1,10.1h81.2
	c5.6,0,10.1-4.5,10.1-10.1L101.5,44.4L101.5,44.4 M93.3,44.4l-5.4,5.4V39.1L93.3,44.4z M81.2,6.8v49.8L62.9,74.9H38.6L20.3,56.5V6.8
	H81.2z M13.5,49.8l-5.4-5.4l5.4-5.4V49.8z M6.8,103.9V52.6l25.7,25.7L6.8,103.9z M11.5,108.7l27.1-27.1h24.3l27.1,27.1L11.5,108.7z
	 M94.7,103.9L69,78.2l25.7-25.7V103.9z"/>
</svg>
