<svg xmlns="http://www.w3.org/2000/svg" xmlns:xlink="http://www.w3.org/1999/xlink" width="34.704" height="37.594" viewBox="0 0 34.704 37.594">
  <defs>
    <clipPath id="clip-path">
      <rect id="Rettangolo_116" data-name="Rettangolo 116" width="34.704" height="37.594" fill="#e85330"/>
    </clipPath>
  </defs>
  <g id="Raggruppa_156" data-name="Raggruppa 156" clip-path="url(#clip-path)">
    <path id="Tracciato_57" data-name="Tracciato 57" d="M33.811,25.6,29.5,21.283a3.055,3.055,0,0,0-4.315,0l-1.961,1.961a2.314,2.314,0,0,1-3.268,0l-8.5-8.507a2.311,2.311,0,0,1,0-3.269l1.961-1.961a3.049,3.049,0,0,0,0-4.315L9.1.893a3.053,3.053,0,0,0-4.311,0L3.217,2.448a11.012,11.012,0,0,0,0,15.557L16.685,31.481a10.994,10.994,0,0,0,15.557,0l1.569-1.569a3.055,3.055,0,0,0,0-4.315m-5.752-2.876,4.314,4.314a1.019,1.019,0,0,1,0,1.439l-.719.719L25.9,23.441l.719-.719a1.019,1.019,0,0,1,1.439,0M7.663,2.332l4.313,4.3a1.016,1.016,0,0,1,0,1.438l-.719.719L5.509,3.04l.715-.709a1.019,1.019,0,0,1,1.44,0m10.46,27.711L4.655,16.568A8.94,8.94,0,0,1,4.094,4.5l5.732,5.732a4.339,4.339,0,0,0,.189,5.941l8.5,8.507h0a4.341,4.341,0,0,0,5.942.189L30.189,30.6a8.923,8.923,0,0,1-12.066-.561" transform="translate(0 0)" fill="#383838"/>
  </g>
</svg>
