<svg xmlns="http://www.w3.org/2000/svg" xmlns:xlink="http://www.w3.org/1999/xlink" width="107.005" height="77" viewBox="0 0 107.005 77">
  <defs>
    <clipPath id="clip-path">
      <rect id="Rettangolo_61" data-name="Rettangolo 61" width="107.005" height="77" fill="#e85330"/>
    </clipPath>
  </defs>
  <g id="Raggruppa_101" data-name="Raggruppa 101" clip-path="url(#clip-path)">
    <path id="Tracciato_40" data-name="Tracciato 40" d="M.9,21H4.6a2.85,2.85,0,0,1,2,.633,2.367,2.367,0,0,1,.685,1.826,2.472,2.472,0,0,1-.26,1.2,2.187,2.187,0,0,1-.793.805,3.064,3.064,0,0,1,.907.311,1.972,1.972,0,0,1,.608.514,1.914,1.914,0,0,1,.336.683,3.136,3.136,0,0,1,.1.812,2.872,2.872,0,0,1-.234,1.192,2.417,2.417,0,0,1-.659.875,2.817,2.817,0,0,1-1.033.531,4.861,4.861,0,0,1-1.369.179H.9Zm2.484,3.752h.456q1.167,0,1.167-.925T3.841,22.9H3.385Zm0,3.878H3.93a2.772,2.772,0,0,0,1.344-.24.94.94,0,0,0,0-1.547A2.782,2.782,0,0,0,3.93,26.6H3.385Z" fill="#e85330"/>
    <rect id="Rettangolo_59" data-name="Rettangolo 59" width="2.484" height="9.558" transform="translate(9.673 20.996)" fill="#e85330"/>
    <path id="Tracciato_41" data-name="Tracciato 41" d="M.9,36.39H4.6a2.846,2.846,0,0,1,2,.634,2.365,2.365,0,0,1,.685,1.825,2.479,2.479,0,0,1-.26,1.2,2.187,2.187,0,0,1-.793.805,3.008,3.008,0,0,1,.907.311,1.956,1.956,0,0,1,.608.513,1.918,1.918,0,0,1,.336.684,3.125,3.125,0,0,1,.1.812,2.87,2.87,0,0,1-.234,1.191,2.409,2.409,0,0,1-.659.875,2.836,2.836,0,0,1-1.033.533,4.9,4.9,0,0,1-1.369.177H.9Zm2.484,3.752h.456q1.167,0,1.167-.925t-1.167-.926H3.385Zm0,3.879H3.93a2.77,2.77,0,0,0,1.344-.241.939.939,0,0,0,0-1.546,2.77,2.77,0,0,0-1.344-.241H3.385Z" fill="#e85330"/>
    <path id="Tracciato_42" data-name="Tracciato 42" d="M12.157,36.389v7.454h2.979v2.1H9.673V36.389Z" fill="#e85330"/>
    <rect id="Rettangolo_60" data-name="Rettangolo 60" width="2.484" height="9.558" transform="translate(16.416 36.39)" fill="#e85330"/>
    <path id="Tracciato_43" data-name="Tracciato 43" d="M20.472,41.168a4.928,4.928,0,0,1,3.15-4.658,6.086,6.086,0,0,1,4.266,0,5.032,5.032,0,0,1,1.68,1.072,4.9,4.9,0,0,1,1.1,1.6,5.2,5.2,0,0,1,0,3.968,4.928,4.928,0,0,1-1.1,1.6,5.058,5.058,0,0,1-1.68,1.07,6.057,6.057,0,0,1-4.266,0,4.942,4.942,0,0,1-3.15-4.659m2.6,0a2.559,2.559,0,0,0,.215,1.053,2.688,2.688,0,0,0,.584.837,2.648,2.648,0,0,0,.855.552,2.823,2.823,0,0,0,2.067,0,2.718,2.718,0,0,0,.861-.552,2.625,2.625,0,0,0,.59-.837,2.681,2.681,0,0,0,0-2.1,2.629,2.629,0,0,0-.59-.838,2.7,2.7,0,0,0-.861-.55,2.809,2.809,0,0,0-2.067,0,2.626,2.626,0,0,0-.855.55,2.693,2.693,0,0,0-.584.838,2.556,2.556,0,0,0-.215,1.051" fill="#e85330"/>
    <path id="Tracciato_44" data-name="Tracciato 44" d="M4.526,53.887v7.454H2.041V53.887H0V51.782H6.567v2.105Z" fill="#e85330"/>
    <path id="Tracciato_45" data-name="Tracciato 45" d="M13.108,53.887H10.153v1.6h2.789v2.1H10.153v1.648h2.954v2.1H7.669V51.782h5.438Z" fill="#e85330"/>
    <path id="Tracciato_46" data-name="Tracciato 46" d="M7.783,70.37a2.651,2.651,0,0,0-2.13-1.052,2.608,2.608,0,0,0-1.033.2,2.525,2.525,0,0,0-.818.551,2.557,2.557,0,0,0-.538.83,2.731,2.731,0,0,0-.2,1.04,2.76,2.76,0,0,0,.2,1.052,2.534,2.534,0,0,0,1.363,1.395,2.525,2.525,0,0,0,1.014.2,2.874,2.874,0,0,0,2.142-1.014v2.941l-.253.089a7.363,7.363,0,0,1-1.065.3,5.2,5.2,0,0,1-.976.1A4.985,4.985,0,0,1,2,75.573,5.213,5.213,0,0,1,.887,73.964a5.165,5.165,0,0,1-.006-4.057,5.048,5.048,0,0,1,4.62-3,5.253,5.253,0,0,1,1.122.121,6.7,6.7,0,0,1,1.16.374Z" fill="#e85330"/>
    <path id="Tracciato_47" data-name="Tracciato 47" d="M15.44,75.073H11.891l-.571,1.66H8.671l3.638-9.558h2.713l3.638,9.558H16.011Zm-.659-1.889L13.665,70,12.55,73.184Z" fill="#e85330"/>
    <path id="Tracciato_48" data-name="Tracciato 48" d="M86.133,0,43.991,21.783V76.445H64.942L86.326,21.361H100.9V42.154H107V15Z" fill="#e85330"/>
    <path id="Tracciato_49" data-name="Tracciato 49" d="M88.809,24.984,68.838,76.444H107V45.777H97.282V24.984Z" fill="#919292"/>
  </g>
</svg>
